# xmcd CD database file
#
# Track frame offsets:
#	150
#	20726
#	36979
#	58194
#	70634
#	91842
#	112500
#	128221
#	142137
#	154774
#	164861
#	190740
#	201762
#	225617
#	240640
#
# Disc length: 3478 seconds
#
# Revision: 0
# Processed by: cddbd v1.5.2PL0 Copyright (c) Steve Scherf et al.
# Submitted via: CDex 1.51
#
DISCID=cf0d940f
DTITLE=Sue Kibbey - sings Jimmy Van Heusen
DYEAR=2005
DGENRE=Jazz
TTITLE0=All the way
TTITLE1=It could happen to you
TTITLE2=Darn that Dream
TTITLE3=It's the Dreamer in Me
TTITLE4=Polka Dots and Moonbeams
TTITLE5=Ee-o-eleven
TTITLE6=Come Fly with Me
TTITLE7=Heaven can wait
TTITLE8=Second Time Around
TTITLE9=Imagination
TTITLE10=Nancy with the Laughing Face
TTITLE11=Like Someone in Love
TTITLE12=But Beautifull
TTITLE13=I Thought About You
TTITLE14=Here's that Rainy Day
EXTD=YEAR: 2005
EXTT0=
EXTT1=
EXTT2=
EXTT3=
EXTT4=
EXTT5=
EXTT6=
EXTT7=
EXTT8=
EXTT9=
EXTT10=
EXTT11=
EXTT12=
EXTT13=
EXTT14=
PLAYORDER=
